<mxfile host="app.diagrams.net" modified="2022-11-22T18:07:45.844Z" agent="5.0 (Windows NT 10.0; Win64; x64) AppleWebKit/537.36 (KHTML, like Gecko) Chrome/107.0.0.0 Safari/537.36" etag="KvGClZ7PXuFf-v4EfoxU" version="20.5.3" type="github">
  <diagram id="ZHMlnCA3z6UdnJzUCb5i" name="Página-1">
    <mxGraphModel dx="2997" dy="1125" grid="1" gridSize="10" guides="1" tooltips="1" connect="1" arrows="1" fold="1" page="1" pageScale="1" pageWidth="827" pageHeight="1169" math="0" shadow="0">
      <root>
        <mxCell id="0" />
        <mxCell id="1" parent="0" />
        <mxCell id="hMiYWxqCcFL1-7lvP4ok-51" style="edgeStyle=orthogonalEdgeStyle;rounded=0;orthogonalLoop=1;jettySize=auto;html=1;" edge="1" parent="1" source="hMiYWxqCcFL1-7lvP4ok-3" target="hMiYWxqCcFL1-7lvP4ok-7">
          <mxGeometry relative="1" as="geometry" />
        </mxCell>
        <mxCell id="hMiYWxqCcFL1-7lvP4ok-3" value="" style="sketch=0;outlineConnect=0;fontColor=#232F3E;gradientColor=none;fillColor=#232F3D;strokeColor=none;dashed=0;verticalLabelPosition=bottom;verticalAlign=top;align=center;html=1;fontSize=12;fontStyle=0;aspect=fixed;pointerEvents=1;shape=mxgraph.aws4.user;" vertex="1" parent="1">
          <mxGeometry x="-740" y="382.25" width="70" height="70" as="geometry" />
        </mxCell>
        <mxCell id="hMiYWxqCcFL1-7lvP4ok-41" style="edgeStyle=orthogonalEdgeStyle;rounded=0;orthogonalLoop=1;jettySize=auto;html=1;entryX=0;entryY=0.5;entryDx=0;entryDy=0;" edge="1" parent="1" source="hMiYWxqCcFL1-7lvP4ok-7" target="hMiYWxqCcFL1-7lvP4ok-11">
          <mxGeometry relative="1" as="geometry" />
        </mxCell>
        <mxCell id="hMiYWxqCcFL1-7lvP4ok-42" style="edgeStyle=orthogonalEdgeStyle;rounded=0;orthogonalLoop=1;jettySize=auto;html=1;entryX=0;entryY=0.5;entryDx=0;entryDy=0;" edge="1" parent="1" source="hMiYWxqCcFL1-7lvP4ok-7" target="hMiYWxqCcFL1-7lvP4ok-10">
          <mxGeometry relative="1" as="geometry" />
        </mxCell>
        <mxCell id="hMiYWxqCcFL1-7lvP4ok-43" style="edgeStyle=orthogonalEdgeStyle;rounded=0;orthogonalLoop=1;jettySize=auto;html=1;entryX=0;entryY=0.5;entryDx=0;entryDy=0;" edge="1" parent="1" source="hMiYWxqCcFL1-7lvP4ok-7" target="hMiYWxqCcFL1-7lvP4ok-9">
          <mxGeometry relative="1" as="geometry" />
        </mxCell>
        <mxCell id="hMiYWxqCcFL1-7lvP4ok-7" value="" style="outlineConnect=0;dashed=0;verticalLabelPosition=bottom;verticalAlign=top;align=center;html=1;shape=mxgraph.aws3.workspaces;fillColor=#D16A28;gradientColor=#F58435;gradientDirection=north;strokeColor=#000000;" vertex="1" parent="1">
          <mxGeometry x="-540" y="370" width="82.5" height="94.5" as="geometry" />
        </mxCell>
        <mxCell id="hMiYWxqCcFL1-7lvP4ok-49" style="edgeStyle=orthogonalEdgeStyle;rounded=0;orthogonalLoop=1;jettySize=auto;html=1;entryX=0;entryY=0.5;entryDx=0;entryDy=0;" edge="1" parent="1" source="hMiYWxqCcFL1-7lvP4ok-9" target="hMiYWxqCcFL1-7lvP4ok-23">
          <mxGeometry relative="1" as="geometry" />
        </mxCell>
        <mxCell id="hMiYWxqCcFL1-7lvP4ok-50" style="edgeStyle=orthogonalEdgeStyle;rounded=0;orthogonalLoop=1;jettySize=auto;html=1;entryX=0;entryY=0.5;entryDx=0;entryDy=0;" edge="1" parent="1" source="hMiYWxqCcFL1-7lvP4ok-9" target="hMiYWxqCcFL1-7lvP4ok-25">
          <mxGeometry relative="1" as="geometry" />
        </mxCell>
        <mxCell id="hMiYWxqCcFL1-7lvP4ok-9" value="Ganhos" style="rounded=1;whiteSpace=wrap;html=1;strokeColor=#000000;fillColor=default;gradientColor=none;" vertex="1" parent="1">
          <mxGeometry x="-310" y="120" width="120" height="60" as="geometry" />
        </mxCell>
        <mxCell id="hMiYWxqCcFL1-7lvP4ok-47" style="edgeStyle=orthogonalEdgeStyle;rounded=0;orthogonalLoop=1;jettySize=auto;html=1;entryX=0;entryY=0.5;entryDx=0;entryDy=0;" edge="1" parent="1" source="hMiYWxqCcFL1-7lvP4ok-10" target="hMiYWxqCcFL1-7lvP4ok-30">
          <mxGeometry relative="1" as="geometry" />
        </mxCell>
        <mxCell id="hMiYWxqCcFL1-7lvP4ok-48" style="edgeStyle=orthogonalEdgeStyle;rounded=0;orthogonalLoop=1;jettySize=auto;html=1;entryX=0;entryY=0.5;entryDx=0;entryDy=0;" edge="1" parent="1" source="hMiYWxqCcFL1-7lvP4ok-10" target="hMiYWxqCcFL1-7lvP4ok-29">
          <mxGeometry relative="1" as="geometry" />
        </mxCell>
        <mxCell id="hMiYWxqCcFL1-7lvP4ok-10" value="Gastos" style="rounded=1;whiteSpace=wrap;html=1;strokeColor=#000000;fillColor=default;gradientColor=none;" vertex="1" parent="1">
          <mxGeometry x="-300" y="387.25" width="120" height="60" as="geometry" />
        </mxCell>
        <mxCell id="hMiYWxqCcFL1-7lvP4ok-44" style="edgeStyle=orthogonalEdgeStyle;rounded=0;orthogonalLoop=1;jettySize=auto;html=1;entryX=0;entryY=0.5;entryDx=0;entryDy=0;" edge="1" parent="1" source="hMiYWxqCcFL1-7lvP4ok-11" target="hMiYWxqCcFL1-7lvP4ok-33">
          <mxGeometry relative="1" as="geometry" />
        </mxCell>
        <mxCell id="hMiYWxqCcFL1-7lvP4ok-46" style="edgeStyle=orthogonalEdgeStyle;rounded=0;orthogonalLoop=1;jettySize=auto;html=1;entryX=0;entryY=0.5;entryDx=0;entryDy=0;" edge="1" parent="1" source="hMiYWxqCcFL1-7lvP4ok-11" target="hMiYWxqCcFL1-7lvP4ok-34">
          <mxGeometry relative="1" as="geometry" />
        </mxCell>
        <mxCell id="hMiYWxqCcFL1-7lvP4ok-11" value="Investidos" style="rounded=1;whiteSpace=wrap;html=1;strokeColor=#000000;fillColor=default;gradientColor=none;" vertex="1" parent="1">
          <mxGeometry x="-310" y="690" width="120" height="60" as="geometry" />
        </mxCell>
        <mxCell id="hMiYWxqCcFL1-7lvP4ok-58" style="edgeStyle=orthogonalEdgeStyle;rounded=0;orthogonalLoop=1;jettySize=auto;html=1;entryX=0;entryY=0.5;entryDx=0;entryDy=0;" edge="1" parent="1" source="hMiYWxqCcFL1-7lvP4ok-23" target="hMiYWxqCcFL1-7lvP4ok-57">
          <mxGeometry relative="1" as="geometry" />
        </mxCell>
        <mxCell id="hMiYWxqCcFL1-7lvP4ok-23" value="Preenchimento" style="rounded=1;whiteSpace=wrap;html=1;strokeColor=#000000;fillColor=default;gradientColor=none;" vertex="1" parent="1">
          <mxGeometry x="-50" y="50" width="120" height="60" as="geometry" />
        </mxCell>
        <mxCell id="hMiYWxqCcFL1-7lvP4ok-60" style="edgeStyle=orthogonalEdgeStyle;rounded=0;orthogonalLoop=1;jettySize=auto;html=1;" edge="1" parent="1" source="hMiYWxqCcFL1-7lvP4ok-25" target="hMiYWxqCcFL1-7lvP4ok-59">
          <mxGeometry relative="1" as="geometry" />
        </mxCell>
        <mxCell id="hMiYWxqCcFL1-7lvP4ok-25" value="Visualizações" style="rounded=1;whiteSpace=wrap;html=1;strokeColor=#000000;fillColor=default;gradientColor=none;" vertex="1" parent="1">
          <mxGeometry x="-50" y="190" width="120" height="60" as="geometry" />
        </mxCell>
        <mxCell id="hMiYWxqCcFL1-7lvP4ok-29" value="Preenchimento" style="rounded=1;whiteSpace=wrap;html=1;strokeColor=#000000;fillColor=default;gradientColor=none;" vertex="1" parent="1">
          <mxGeometry x="-40" y="480" width="120" height="60" as="geometry" />
        </mxCell>
        <mxCell id="hMiYWxqCcFL1-7lvP4ok-30" value="Visualizações" style="rounded=1;whiteSpace=wrap;html=1;strokeColor=#000000;fillColor=default;gradientColor=none;" vertex="1" parent="1">
          <mxGeometry x="-40" y="340" width="120" height="60" as="geometry" />
        </mxCell>
        <mxCell id="hMiYWxqCcFL1-7lvP4ok-33" value="Preenchimento" style="rounded=1;whiteSpace=wrap;html=1;strokeColor=#000000;fillColor=default;gradientColor=none;" vertex="1" parent="1">
          <mxGeometry x="-40" y="760" width="120" height="60" as="geometry" />
        </mxCell>
        <mxCell id="hMiYWxqCcFL1-7lvP4ok-34" value="Visualizações" style="rounded=1;whiteSpace=wrap;html=1;strokeColor=#000000;fillColor=default;gradientColor=none;" vertex="1" parent="1">
          <mxGeometry x="-40" y="620" width="120" height="60" as="geometry" />
        </mxCell>
        <mxCell id="hMiYWxqCcFL1-7lvP4ok-57" value="" style="shape=image;html=1;verticalAlign=top;verticalLabelPosition=bottom;labelBackgroundColor=#ffffff;imageAspect=0;aspect=fixed;image=https://cdn0.iconfinder.com/data/icons/evericons-24px-vol-2/24/database-128.png;strokeColor=#000000;fillColor=default;gradientColor=none;strokeWidth=3;" vertex="1" parent="1">
          <mxGeometry x="160" y="50" width="60" height="60" as="geometry" />
        </mxCell>
        <mxCell id="hMiYWxqCcFL1-7lvP4ok-62" value="" style="edgeStyle=orthogonalEdgeStyle;rounded=0;orthogonalLoop=1;jettySize=auto;html=1;" edge="1" parent="1" source="hMiYWxqCcFL1-7lvP4ok-59" target="hMiYWxqCcFL1-7lvP4ok-61">
          <mxGeometry relative="1" as="geometry" />
        </mxCell>
        <mxCell id="hMiYWxqCcFL1-7lvP4ok-59" value="" style="shape=image;html=1;verticalAlign=top;verticalLabelPosition=bottom;labelBackgroundColor=#ffffff;imageAspect=0;aspect=fixed;image=https://cdn0.iconfinder.com/data/icons/evericons-24px-vol-2/24/database-128.png;strokeColor=#000000;fillColor=default;gradientColor=none;strokeWidth=3;" vertex="1" parent="1">
          <mxGeometry x="160" y="190" width="60" height="60" as="geometry" />
        </mxCell>
        <mxCell id="hMiYWxqCcFL1-7lvP4ok-61" value="Lista de ganhos" style="whiteSpace=wrap;html=1;verticalAlign=top;strokeColor=#000000;labelBackgroundColor=#ffffff;gradientColor=none;strokeWidth=1;" vertex="1" parent="1">
          <mxGeometry x="270" y="190" width="120" height="60" as="geometry" />
        </mxCell>
        <mxCell id="hMiYWxqCcFL1-7lvP4ok-63" style="edgeStyle=orthogonalEdgeStyle;rounded=0;orthogonalLoop=1;jettySize=auto;html=1;entryX=0;entryY=0.5;entryDx=0;entryDy=0;" edge="1" parent="1" target="hMiYWxqCcFL1-7lvP4ok-65">
          <mxGeometry relative="1" as="geometry">
            <mxPoint x="79.99999999999955" y="370" as="sourcePoint" />
          </mxGeometry>
        </mxCell>
        <mxCell id="hMiYWxqCcFL1-7lvP4ok-64" style="edgeStyle=orthogonalEdgeStyle;rounded=0;orthogonalLoop=1;jettySize=auto;html=1;" edge="1" parent="1" target="hMiYWxqCcFL1-7lvP4ok-67">
          <mxGeometry relative="1" as="geometry">
            <mxPoint x="79.99999999999955" y="510" as="sourcePoint" />
          </mxGeometry>
        </mxCell>
        <mxCell id="hMiYWxqCcFL1-7lvP4ok-65" value="" style="shape=image;html=1;verticalAlign=top;verticalLabelPosition=bottom;labelBackgroundColor=#ffffff;imageAspect=0;aspect=fixed;image=https://cdn0.iconfinder.com/data/icons/evericons-24px-vol-2/24/database-128.png;strokeColor=#000000;fillColor=default;gradientColor=none;strokeWidth=3;" vertex="1" parent="1">
          <mxGeometry x="170" y="340" width="60" height="60" as="geometry" />
        </mxCell>
        <mxCell id="hMiYWxqCcFL1-7lvP4ok-66" value="" style="edgeStyle=orthogonalEdgeStyle;rounded=0;orthogonalLoop=1;jettySize=auto;html=1;" edge="1" parent="1" source="hMiYWxqCcFL1-7lvP4ok-67" target="hMiYWxqCcFL1-7lvP4ok-68">
          <mxGeometry relative="1" as="geometry" />
        </mxCell>
        <mxCell id="hMiYWxqCcFL1-7lvP4ok-67" value="" style="shape=image;html=1;verticalAlign=top;verticalLabelPosition=bottom;labelBackgroundColor=#ffffff;imageAspect=0;aspect=fixed;image=https://cdn0.iconfinder.com/data/icons/evericons-24px-vol-2/24/database-128.png;strokeColor=#000000;fillColor=default;gradientColor=none;strokeWidth=3;" vertex="1" parent="1">
          <mxGeometry x="170" y="480" width="60" height="60" as="geometry" />
        </mxCell>
        <mxCell id="hMiYWxqCcFL1-7lvP4ok-68" value="Lista de gastos" style="whiteSpace=wrap;html=1;verticalAlign=top;strokeColor=#000000;labelBackgroundColor=#ffffff;gradientColor=none;strokeWidth=1;" vertex="1" parent="1">
          <mxGeometry x="280" y="480" width="120" height="60" as="geometry" />
        </mxCell>
        <mxCell id="hMiYWxqCcFL1-7lvP4ok-69" style="edgeStyle=orthogonalEdgeStyle;rounded=0;orthogonalLoop=1;jettySize=auto;html=1;entryX=0;entryY=0.5;entryDx=0;entryDy=0;" edge="1" parent="1" target="hMiYWxqCcFL1-7lvP4ok-71">
          <mxGeometry relative="1" as="geometry">
            <mxPoint x="79.99999999999955" y="650" as="sourcePoint" />
          </mxGeometry>
        </mxCell>
        <mxCell id="hMiYWxqCcFL1-7lvP4ok-70" style="edgeStyle=orthogonalEdgeStyle;rounded=0;orthogonalLoop=1;jettySize=auto;html=1;" edge="1" parent="1" target="hMiYWxqCcFL1-7lvP4ok-73">
          <mxGeometry relative="1" as="geometry">
            <mxPoint x="79.99999999999955" y="790" as="sourcePoint" />
          </mxGeometry>
        </mxCell>
        <mxCell id="hMiYWxqCcFL1-7lvP4ok-71" value="" style="shape=image;html=1;verticalAlign=top;verticalLabelPosition=bottom;labelBackgroundColor=#ffffff;imageAspect=0;aspect=fixed;image=https://cdn0.iconfinder.com/data/icons/evericons-24px-vol-2/24/database-128.png;strokeColor=#000000;fillColor=default;gradientColor=none;strokeWidth=3;" vertex="1" parent="1">
          <mxGeometry x="170" y="620" width="60" height="60" as="geometry" />
        </mxCell>
        <mxCell id="hMiYWxqCcFL1-7lvP4ok-72" value="" style="edgeStyle=orthogonalEdgeStyle;rounded=0;orthogonalLoop=1;jettySize=auto;html=1;" edge="1" parent="1" source="hMiYWxqCcFL1-7lvP4ok-73" target="hMiYWxqCcFL1-7lvP4ok-74">
          <mxGeometry relative="1" as="geometry" />
        </mxCell>
        <mxCell id="hMiYWxqCcFL1-7lvP4ok-73" value="" style="shape=image;html=1;verticalAlign=top;verticalLabelPosition=bottom;labelBackgroundColor=#ffffff;imageAspect=0;aspect=fixed;image=https://cdn0.iconfinder.com/data/icons/evericons-24px-vol-2/24/database-128.png;strokeColor=#000000;fillColor=default;gradientColor=none;strokeWidth=3;" vertex="1" parent="1">
          <mxGeometry x="170" y="760" width="60" height="60" as="geometry" />
        </mxCell>
        <mxCell id="hMiYWxqCcFL1-7lvP4ok-74" value="Lista de investimento" style="whiteSpace=wrap;html=1;verticalAlign=top;strokeColor=#000000;labelBackgroundColor=#ffffff;gradientColor=none;strokeWidth=1;" vertex="1" parent="1">
          <mxGeometry x="280" y="760" width="120" height="60" as="geometry" />
        </mxCell>
      </root>
    </mxGraphModel>
  </diagram>
</mxfile>
